<svg xmlns="http://www.w3.org/2000/svg" version="1.1" xmlns:xlink="http://www.w3.org/1999/xlink" xmlns:svgjs="http://svgjs.dev/svgjs" width="1000" height="239" viewBox="0 0 1000 239"><g transform="matrix(1,0,0,1,-0.6060362050606045,0.4431868266653538)"><svg viewBox="0 0 396 95" data-background-color="#ffffff" preserveAspectRatio="xMidYMid meet" height="239" width="1000" xmlns="http://www.w3.org/2000/svg" xmlns:xlink="http://www.w3.org/1999/xlink"><g id="tight-bounds" transform="matrix(1,0,0,1,0.23999054722639812,-0.17615874883017568)"><svg viewBox="0 0 395.52 95.35232087658417" height="95.35232087658417" width="395.52"><g><svg viewBox="0 0 609.3700711817012 146.9074902910207" height="95.35232087658417" width="395.52"><g><rect width="4.839739248700581" height="127.56077304574879" x="196.34085745996248" y="9.67335862263596" fill="#010c80" opacity="1" stroke-width="0" stroke="transparent" fill-opacity="1" class="rect-o-0" data-fill-palette-color="primary" rx="1%" id="o-0" data-palette-color="#010c80"></rect></g><g transform="matrix(1,0,0,1,213.85007118170122,20.303423043115025)"><svg viewBox="0 0 395.52 106.30064420479066" height="106.30064420479066" width="395.52"><g id="textblocktransform"><svg viewBox="0 0 395.52 106.30064420479066" height="106.30064420479066" width="395.52" id="textblock"><g><svg viewBox="0 0 395.52 53.66693129770993" height="53.66693129770993" width="395.52"><g transform="matrix(1,0,0,1,0,0)"><svg width="395.52" viewBox="1.850000023841858 -35.20000076293945 261.97998046875 35.54999923706055" height="53.66693129770993" data-palette-color="#010c80"><path d="M1.85-17.45Q1.85-22.55 4.23-26.6 6.6-30.65 10.68-32.93 14.75-35.2 19.6-35.2L19.6-35.2Q25.15-35.2 29.48-32.48 33.8-29.75 35.75-24.75L35.75-24.75 28.9-24.75Q27.55-27.5 25.15-28.85 22.75-30.2 19.6-30.2L19.6-30.2Q16.15-30.2 13.45-28.65 10.75-27.1 9.22-24.2 7.7-21.3 7.7-17.45L7.7-17.45Q7.7-13.6 9.22-10.7 10.75-7.8 13.45-6.23 16.15-4.65 19.6-4.65L19.6-4.65Q22.75-4.65 25.15-6 27.55-7.35 28.9-10.1L28.9-10.1 35.75-10.1Q33.8-5.1 29.48-2.4 25.15 0.3 19.6 0.3L19.6 0.3Q14.7 0.3 10.65-1.98 6.6-4.25 4.23-8.3 1.85-12.35 1.85-17.45L1.85-17.45ZM65.85 0L63.35-7.1 48.8-7.1 46.3 0 40.35 0 52.8-34.8 59.4-34.8 71.85 0 65.85 0ZM50.4-11.75L61.75-11.75 56.1-27.9 50.4-11.75ZM102.09 0L95.3 0 87.3-13.9 82.95-13.9 82.95 0 77.25 0 77.25-34.75 89.25-34.75Q93.25-34.75 96.02-33.35 98.8-31.95 100.17-29.6 101.55-27.25 101.55-24.35L101.55-24.35Q101.55-20.95 99.57-18.18 97.59-15.4 93.5-14.4L93.5-14.4 102.09 0ZM82.95-30.1L82.95-18.45 89.25-18.45Q92.45-18.45 94.07-20.05 95.7-21.65 95.7-24.35L95.7-24.35Q95.7-27.05 94.09-28.58 92.5-30.1 89.25-30.1L89.25-30.1 82.95-30.1ZM109.44-20.5L129.99-20.5 129.99-15.7 109.44-15.7 109.44-20.5ZM156.69-17.85Q159.49-17.35 161.44-14.9 163.39-12.45 163.39-9.35L163.39-9.35Q163.39-6.7 162.02-4.58 160.64-2.45 158.04-1.23 155.44 0 151.99 0L151.99 0 138.09 0 138.09-34.75 151.34-34.75Q154.89-34.75 157.44-33.55 159.99-32.35 161.29-30.33 162.59-28.3 162.59-25.8L162.59-25.8Q162.59-22.8 160.99-20.8 159.39-18.8 156.69-17.85L156.69-17.85ZM143.79-30.1L143.79-20.15 150.84-20.15Q153.64-20.15 155.22-21.43 156.79-22.7 156.79-25.1L156.79-25.1Q156.79-27.45 155.22-28.78 153.64-30.1 150.84-30.1L150.84-30.1 143.79-30.1ZM151.49-4.65Q154.39-4.65 156.04-6.05 157.69-7.45 157.69-9.95L157.69-9.95Q157.69-12.5 155.94-14 154.19-15.5 151.29-15.5L151.29-15.5 143.79-15.5 143.79-4.65 151.49-4.65ZM194.44 0L187.64 0 179.64-13.9 175.29-13.9 175.29 0 169.59 0 169.59-34.75 181.59-34.75Q185.59-34.75 188.36-33.35 191.14-31.95 192.51-29.6 193.89-27.25 193.89-24.35L193.89-24.35Q193.89-20.95 191.91-18.18 189.94-15.4 185.84-14.4L185.84-14.4 194.44 0ZM175.29-30.1L175.29-18.45 181.59-18.45Q184.79-18.45 186.41-20.05 188.04-21.65 188.04-24.35L188.04-24.35Q188.04-27.05 186.44-28.58 184.84-30.1 181.59-30.1L181.59-30.1 175.29-30.1ZM217.03 0.35Q212.19 0.35 208.11-1.93 204.03-4.2 201.66-8.28 199.28-12.35 199.28-17.45L199.28-17.45Q199.28-22.55 201.66-26.6 204.03-30.65 208.11-32.93 212.19-35.2 217.03-35.2L217.03-35.2Q221.94-35.2 226.01-32.93 230.09-30.65 232.44-26.6 234.78-22.55 234.78-17.45L234.78-17.45Q234.78-12.35 232.44-8.28 230.09-4.2 226.01-1.93 221.94 0.35 217.03 0.35L217.03 0.35ZM217.03-4.6Q220.49-4.6 223.19-6.18 225.88-7.75 227.41-10.68 228.94-13.6 228.94-17.45L228.94-17.45Q228.94-21.3 227.41-24.2 225.88-27.1 223.19-28.65 220.49-30.2 217.03-30.2L217.03-30.2Q213.59-30.2 210.88-28.65 208.19-27.1 206.66-24.2 205.13-21.3 205.13-17.45L205.13-17.45Q205.13-13.6 206.66-10.68 208.19-7.75 210.88-6.18 213.59-4.6 217.03-4.6L217.03-4.6ZM251.83 0.35Q248.33 0.35 245.53-0.88 242.73-2.1 241.13-4.35 239.53-6.6 239.53-9.6L239.53-9.6 245.63-9.6Q245.83-7.35 247.41-5.9 248.98-4.45 251.83-4.45L251.83-4.45Q254.78-4.45 256.43-5.88 258.08-7.3 258.08-9.55L258.08-9.55Q258.08-11.3 257.06-12.4 256.03-13.5 254.51-14.1 252.98-14.7 250.28-15.4L250.28-15.4Q246.88-16.3 244.76-17.23 242.63-18.15 241.13-20.1 239.63-22.05 239.63-25.3L239.63-25.3Q239.63-28.3 241.13-30.55 242.63-32.8 245.33-34 248.03-35.2 251.58-35.2L251.58-35.2Q256.63-35.2 259.86-32.68 263.08-30.15 263.43-25.75L263.43-25.75 257.13-25.75Q256.98-27.65 255.33-29 253.68-30.35 250.98-30.35L250.98-30.35Q248.53-30.35 246.98-29.1 245.43-27.85 245.43-25.5L245.43-25.5Q245.43-23.9 246.41-22.88 247.38-21.85 248.88-21.25 250.38-20.65 252.98-19.95L252.98-19.95Q256.43-19 258.61-18.05 260.78-17.1 262.31-15.13 263.83-13.15 263.83-9.85L263.83-9.85Q263.83-7.2 262.41-4.85 260.98-2.5 258.26-1.07 255.53 0.35 251.83 0.35L251.83 0.35Z" opacity="1" transform="matrix(1,0,0,1,0,0)" fill="#010c80" class="wordmark-text-0" data-fill-palette-color="primary" id="text-0"></path></svg></g></svg></g><g transform="matrix(1,0,0,1,0,66.3364057707481)"><svg viewBox="0 0 232.209792 39.96423843404256" height="39.96423843404256" width="232.209792"><g transform="matrix(1,0,0,1,0,0)"><svg width="232.209792" viewBox="3.299999952316284 -35.70000076293945 211.47999572753906 36.400001525878906" height="39.96423843404256" data-palette-color="#0074d9"><path d="M3.3 0L3.3-35 14.55-35Q18.85-35 22.23-32.9 25.6-30.8 27.5-26.85 29.4-22.9 29.4-17.5L29.4-17.5Q29.4-12.1 27.5-8.15 25.6-4.2 22.23-2.1 18.85 0 14.55 0L14.55 0 3.3 0ZM8.55-4.8L14.1-4.8Q18.75-4.8 21.18-8.13 23.6-11.45 23.6-17.5L23.6-17.5Q23.6-23.55 21.18-26.88 18.75-30.2 14.1-30.2L14.1-30.2 8.55-30.2 8.55-4.8ZM33.2 0L33.2-24.7 37.5-24.7 38-21.25Q39.55-23.3 40.9-24.23 42.25-25.15 43.9-25.15L43.9-25.15Q44.6-25.15 45.1-25L45.1-25 44.65-19.6Q43.75-19.8 43.1-19.8L43.1-19.8Q41.7-19.8 40.45-19.07 39.2-18.35 38.25-17.2L38.25-17.2 38.25 0 33.2 0ZM57.7 0.5Q53.95 0.5 51.32-1.23 48.7-2.95 47.37-5.9 46.05-8.85 46.05-12.45L46.05-12.45Q46.05-16 47.27-18.9 48.5-21.8 50.87-23.48 53.25-25.15 56.55-25.15L56.55-25.15Q60.7-25.15 63.22-22.3 65.75-19.45 65.75-14.5L65.75-14.5Q65.75-13.4 65.5-11.8L65.5-11.8 51.25-11.8Q51.45-7.9 53.35-5.9 55.25-3.9 58.15-3.9L58.15-3.9Q59.8-3.9 61.47-4.33 63.15-4.75 64.5-5.55L64.5-5.55 64.8-1.05Q61.95 0.5 57.7 0.5L57.7 0.5ZM51.4-15.35L60.6-15.35Q60.6-17.8 59.57-19.3 58.55-20.8 56.4-20.8L56.4-20.8Q54.4-20.8 53.1-19.43 51.8-18.05 51.4-15.35L51.4-15.35ZM74.34 0.5Q71.54 0.5 69.69-1.43 67.84-3.35 67.84-6.55L67.84-6.55Q67.84-9.85 69.84-11.85 71.84-13.85 74.62-14.7 77.39-15.55 79.99-15.6L79.99-15.6Q79.99-18.35 79.12-19.48 78.24-20.6 76.14-20.6L76.14-20.6Q73.24-20.6 70.19-18.5L70.19-18.5 69.69-22.75Q73.14-25.15 77.29-25.15L77.29-25.15Q81.19-25.15 83.17-22.9 85.14-20.65 85.14-15.7L85.14-15.7 85.14-8.4Q85.14-5.65 85.52-4.7 85.89-3.75 87.09-3.75L87.09-3.75 87.74-3.75 87.29 0.5 85.59 0.5Q81.99 0.5 80.69-2.8L80.69-2.8Q78.04 0.5 74.34 0.5L74.34 0.5ZM75.99-3.6Q77.09-3.6 78.14-4.3 79.19-5 80.04-6.25L80.04-6.25 80.04-12.05Q73.19-11.55 73.19-6.95L73.19-6.95Q73.19-3.6 75.99-3.6L75.99-3.6ZM115.24-25.15Q119.44-25.15 121.42-22.45 123.39-19.75 123.39-15L123.39-15 123.39 0 118.34 0 118.34-14.35Q118.34-17.65 117.39-19.23 116.44-20.8 114.19-20.8L114.19-20.8Q111.99-20.8 110.82-19.3 109.64-17.8 109.64-15L109.64-15 109.64 0 104.59 0 104.59-14.35Q104.59-17.6 103.62-19.2 102.64-20.8 100.64-20.8L100.64-20.8Q97.69-20.8 95.94-17.9L95.94-17.9 95.94 0 90.84 0 90.84-24.7 95.09-24.7 95.39-22.1Q96.49-23.55 98.14-24.35 99.79-25.15 101.79-25.15L101.79-25.15Q103.94-25.15 105.54-24.18 107.14-23.2 108.09-21.45L108.09-21.45Q109.14-23.2 110.97-24.18 112.79-25.15 115.24-25.15L115.24-25.15ZM152.59 0.7Q147.94 0.7 144.39-1.53 140.84-3.75 138.84-7.88 136.84-12 136.84-17.5L136.84-17.5Q136.84-22.95 138.86-27.1 140.89-31.25 144.46-33.48 148.03-35.7 152.53-35.7L152.53-35.7Q156.69-35.7 160.24-34.15L160.24-34.15 159.64-29.05Q158.04-29.85 156.56-30.25 155.09-30.65 153.39-30.65L153.39-30.65Q148.28-30.65 145.46-27.03 142.64-23.4 142.64-17.5L142.64-17.5Q142.64-11.6 145.46-7.98 148.28-4.35 153.39-4.35L153.39-4.35Q156.49-4.35 159.64-5.85L159.64-5.85 160.24-0.8Q156.99 0.7 152.59 0.7L152.59 0.7ZM168.98 0.5Q166.18 0.5 164.33-1.43 162.48-3.35 162.48-6.55L162.48-6.55Q162.48-9.85 164.48-11.85 166.48-13.85 169.26-14.7 172.03-15.55 174.63-15.6L174.63-15.6Q174.63-18.35 173.76-19.48 172.88-20.6 170.78-20.6L170.78-20.6Q167.88-20.6 164.83-18.5L164.83-18.5 164.33-22.75Q167.78-25.15 171.93-25.15L171.93-25.15Q175.83-25.15 177.81-22.9 179.78-20.65 179.78-15.7L179.78-15.7 179.78-8.4Q179.78-5.65 180.16-4.7 180.53-3.75 181.73-3.75L181.73-3.75 182.38-3.75 181.93 0.5 180.23 0.5Q176.63 0.5 175.33-2.8L175.33-2.8Q172.68 0.5 168.98 0.5L168.98 0.5ZM170.63-3.6Q171.73-3.6 172.78-4.3 173.83-5 174.68-6.25L174.68-6.25 174.68-12.05Q167.83-11.55 167.83-6.95L167.83-6.95Q167.83-3.6 170.63-3.6L170.63-3.6ZM185.58 0L185.58-24.7 189.88-24.7 190.38-21.25Q191.93-23.3 193.28-24.23 194.63-25.15 196.28-25.15L196.28-25.15Q196.98-25.15 197.48-25L197.48-25 197.03-19.6Q196.13-19.8 195.48-19.8L195.48-19.8Q194.08-19.8 192.83-19.07 191.58-18.35 190.63-17.2L190.63-17.2 190.63 0 185.58 0ZM206.48 0.5Q204.33 0.5 202.55 0.03 200.78-0.45 199.13-1.4L199.13-1.4 199.68-6.2Q203.08-3.7 206.08-3.7L206.08-3.7Q207.83-3.7 208.8-4.4 209.78-5.1 209.78-6.45L209.78-6.45Q209.78-7.85 208.83-8.68 207.88-9.5 204.93-10.9L204.93-10.9Q202.03-12.25 200.7-13.88 199.38-15.5 199.38-18.2L199.38-18.2Q199.38-21.3 201.58-23.23 203.78-25.15 207.48-25.15L207.48-25.15Q211.13-25.15 213.88-23.45L213.88-23.45 213.33-18.9Q211.93-20 210.68-20.53 209.43-21.05 207.83-21.05L207.83-21.05Q206.23-21.05 205.28-20.35 204.33-19.65 204.33-18.4L204.33-18.4Q204.33-17.15 205.23-16.43 206.13-15.7 208.78-14.4L208.78-14.4Q211.98-12.9 213.38-11.23 214.78-9.55 214.78-6.85L214.78-6.85Q214.78-3.4 212.53-1.45 210.28 0.5 206.48 0.5L206.48 0.5Z" opacity="1" transform="matrix(1,0,0,1,0,0)" fill="#0074d9" class="slogan-text-1" data-fill-palette-color="secondary" id="text-1"></path></svg></g></svg></g></svg></g></svg></g><g><svg viewBox="0 0 183.6713829869243 146.9074902910207" height="146.9074902910207" width="183.6713829869243"><g><svg xmlns:x="http://ns.adobe.com/Extensibility/1.0/" xmlns:i="http://ns.adobe.com/AdobeIllustrator/10.0/" xmlns:graph="http://ns.adobe.com/Graphs/1.0/" xmlns="http://www.w3.org/2000/svg" xmlns:xlink="http://www.w3.org/1999/xlink" xmlns:a="http://ns.adobe.com/AdobeSVGViewerExtensions/3.0/" version="1.0" x="0" y="0" viewBox="1.0190001726150513 14.23800277709961 97.98100280761719 78.36900329589844" enable-background="new 0 0 100 100" xml:space="preserve" height="146.9074902910207" width="183.6713829869243" class="icon-icon-0" data-fill-palette-color="accent" id="icon-0"><g fill="#0074d9" data-fill-palette-color="accent"><path d="M97.943 37.106c-1.031-1.671-3.146-2.237-4.275-2.237-1.131 0-1.377 1.205-1.377 1.205v4.153c0 0 0.002 0.007 0.002 0.018l-1.199 0.597c-0.91-4.512-2.02-9.807-2.998-13.875-2.297-9.542-3.865-12.729-5.523-12.729h-2.594c-0.51 0-0.953 0.172-1.225 0.434 0 0-23.715-0.433-28.721-0.434-0.004 0-0.006 0-0.01 0-0.008 0-0.018 0-0.026 0-0.004 0-0.006 0-0.009 0-5.007 0-28.72 0.434-28.72 0.434-0.271-0.262-0.718-0.434-1.226-0.434h-2.595c-1.658 0-3.228 3.187-5.523 12.729-0.978 4.068-2.088 9.363-2.998 13.875l-1.201-0.597c0.002-0.011 0.003-0.018 0.003-0.018v-4.153c0 0-0.246-1.205-1.376-1.205-1.13 0-3.244 0.565-4.276 2.237s-1.057 2.825-1.057 3.98c0 1.156 0.614 3.612 2.752 4.375 2.138 0.762 3.146 0.639 3.146-0.024 0-0.024 0-0.054 0.003-0.087l1.065 0.224c-0.019 0.091-0.037 0.188-0.054 0.275 2.195 1.263 5.36 2.494 9.369 2.494h32.685 32.728c4.01 0 7.174-1.231 9.371-2.494-0.02-0.087-0.037-0.184-0.055-0.275l1.064-0.224c0.004 0.033 0.004 0.063 0.004 0.088 0 0.663 1.006 0.786 3.145 0.024C98.385 44.699 99 42.243 99 41.087 99 39.932 98.977 38.778 97.943 37.106zM17.186 47.303c-1.612 0-2.918-1.306-2.918-2.917 0-1.612 1.307-2.918 2.918-2.918 1.611 0 2.917 1.306 2.917 2.918C20.103 45.997 18.797 47.303 17.186 47.303zM50.01 40.521c-5.818-0.038-14.405-0.176-22.979-0.613-9.131-0.464-11.542-0.719-12.12-3.63-1.33-6.7 2.659-17.642 2.659-17.642s10.845-1.022 19.174-1.233c3.876-0.098 8.94-0.105 13.246-0.083v0c0.007 0 0.015 0 0.021 0 0.008 0 0.016 0 0.023 0v0c4.305-0.021 9.369-0.015 13.246 0.083 8.326 0.211 19.172 1.233 19.172 1.233s3.988 10.942 2.658 17.642c-0.576 2.911-2.988 3.166-12.119 3.63C64.414 40.346 55.828 40.484 50.01 40.521zM82.834 47.303c-1.609 0-2.914-1.306-2.914-2.917 0-1.612 1.305-2.918 2.914-2.918 1.613 0 2.922 1.306 2.922 2.918C85.756 45.997 84.447 47.303 82.834 47.303z" fill="#0074d9" data-fill-palette-color="accent"></path><path d="M77.955 57.33c0.203 0 0.402 0.014 0.596 0.035 1.26-1.996 3.355-3.244 5.551-4.533 0.961-0.562 1.955-1.146 2.885-1.805 0.693-0.488 1.078-1.455 1.256-2.672-1.609 0.467-3.455 0.774-5.525 0.774H50.033h-0.044H17.304c-2.069 0-3.915-0.307-5.527-0.774 0.18 1.217 0.566 2.184 1.257 2.672 0.931 0.658 1.925 1.24 2.887 1.805 2.194 1.289 4.29 2.539 5.55 4.535 0.205-0.023 0.414-0.037 0.626-0.037 2.496 0 4.52 1.574 4.52 3.516 0 0.305-0.055 0.598-0.146 0.875 1.511 0 45.825 0 47.112 0-0.092-0.277-0.146-0.57-0.146-0.875C73.436 58.904 75.461 57.33 77.955 57.33z" fill="#0074d9" data-fill-palette-color="accent"></path><path d="M92.289 46.666c-0.922 0.516-2.002 1.017-3.23 1.433-0.184 1.578-0.658 2.893-1.619 3.571-0.955 0.678-1.963 1.27-2.941 1.842-1.988 1.168-3.895 2.301-5.092 4.008 1.783 0.469 3.068 1.781 3.068 3.326 0 0.334-0.064 0.654-0.174 0.959 5.41 0.199 7.365 0.842 8.064 1.242l-0.15 0.857c-0.051-0.029-0.098-0.066-0.133-0.119-0.008-0.01-1.174-0.977-8.197-1.205-0.775 1.062-2.244 1.781-3.93 1.781-1.705 0-3.191-0.734-3.959-1.82-3.283 0.006-6.91-0.002-6.91-0.002-0.193 1.18-0.887 2.059-1.715 2.059H50.033h-0.044H34.65c-0.829 0-1.522-0.879-1.717-2.059 0 0-3.603 0.008-6.876 0.002-0.77 1.086-2.253 1.82-3.96 1.82-1.686 0-3.154-0.719-3.931-1.783-7.051 0.229-8.219 1.195-8.227 1.207-0.036 0.053-0.083 0.09-0.134 0.119l-0.15-0.857c0.701-0.402 2.661-1.043 8.096-1.244-0.11-0.305-0.174-0.623-0.174-0.957 0-1.539 1.274-2.846 3.044-3.318-1.198-1.711-3.105-2.846-5.099-4.016-0.975-0.572-1.984-1.164-2.942-1.842-0.958-0.678-1.434-1.995-1.618-3.571-1.229-0.417-2.308-0.917-3.229-1.433-3.264 4.383-2.818 16.61-0.154 25.125-0.004 0.049-0.013 0.096-0.013 0.15v18.012c0 1.465 2.113 2.654 4.718 2.654h0.794c2.606 0 4.718-1.189 4.718-2.654v-5.785h32.192 0.044 32.191v5.785c0 1.465 2.111 2.654 4.719 2.654h0.795c2.604 0 4.715-1.189 4.715-2.654V71.941c0-0.055-0.006-0.102-0.01-0.15C95.107 63.275 95.553 51.049 92.289 46.666zM21.655 77.801c-1.477 0-2.675-1.195-2.675-2.676 0-1.475 1.198-2.672 2.675-2.672 1.478 0 2.674 1.197 2.674 2.672C24.33 76.605 23.133 77.801 21.655 77.801zM71.207 74.771c-0.701 2.908-2.924 4.512-5.414 4.512h-15.76-0.044H34.229c-2.492 0-4.712-1.604-5.414-4.512 0 0-1.754-4.512 4.511-4.512h16.662 0.044 16.66C72.959 70.26 71.207 74.771 71.207 74.771zM78.363 77.801c-1.475 0-2.672-1.195-2.672-2.676 0-1.475 1.197-2.672 2.672-2.672 1.48 0 2.678 1.197 2.678 2.672C81.041 76.605 79.844 77.801 78.363 77.801z" fill="#0074d9" data-fill-palette-color="accent"></path></g></svg></g></svg></g></svg></g><defs></defs></svg><rect width="395.52" height="95.35232087658417" fill="none" stroke="none" visibility="hidden"></rect></g></svg></g></svg>